<?xml version="1.0" standalone="no"?>
<!DOCTYPE svg PUBLIC "-//W3C//DTD SVG 20010904//EN"
 "http://www.w3.org/TR/2001/REC-SVG-20010904/DTD/svg10.dtd">
<svg version="1.0" xmlns="http://www.w3.org/2000/svg"
 width="1025.000000pt" height="1025.000000pt" viewBox="0 0 1025.000000 1025.000000"
 preserveAspectRatio="xMidYMid meet">
<metadata>
Created by potrace 1.14, written by Peter Selinger 2001-2017
</metadata>
<g transform="translate(0.000000,1025.000000) scale(0.100000,-0.100000)"
fill="#000000" stroke="none">
<path d="M3320 9234 c-388 -34 -660 -108 -970 -265 -235 -119 -430 -259 -614
-444 -418 -419 -656 -930 -716 -1540 -8 -76 -10 -675 -8 -1955 l4 -1845 22
-112 c65 -338 167 -611 324 -872 236 -390 595 -717 1013 -922 236 -115 441
-180 712 -226 154 -26 572 -26 726 0 261 44 472 110 692 216 206 99 390 219
549 359 l59 52 41 -35 c424 -365 882 -564 1416 -616 150 -14 431 -6 575 16
527 82 1001 321 1370 690 373 373 605 834 692 1377 17 106 18 223 18 1958 0
2030 3 1919 -61 2210 -58 263 -185 567 -332 790 -396 604 -1022 999 -1738
1095 -159 22 -460 22 -619 0 -473 -63 -924 -262 -1268 -558 l-57 -49 -46 38
c-194 165 -283 229 -444 322 -254 146 -552 248 -848 292 -127 18 -401 32 -492
24z m3790 -219 c390 -58 765 -216 1075 -454 440 -337 758 -860 855 -1406 37
-208 40 -315 40 -1585 l0 -1245 -50 115 c-80 182 -179 348 -318 530 -41 54
-679 699 -1764 1786 l-1699 1701 81 64 c373 294 790 466 1240 509 127 12 410
4 540 -15z"/>
</g>
</svg>
