<svg width="1025" height="1025" viewBox="0 0 1025 1025" fill="none" xmlns="http://www.w3.org/2000/svg">
<g filter="url(#filter0_b_31_26)">
<path fill-rule="evenodd" clip-rule="evenodd" d="M589.123 683.485H589.182V678.039V350.72V344.466H589.104C585.786 212.483 477.755 106.511 344.974 106.511C212.192 106.511 104.161 212.483 100.843 344.466H100.765V350.72L100.765 678.039V683.485H100.824C103.721 815.843 211.921 922.247 344.974 922.247C478.026 922.247 586.227 815.843 589.123 683.485Z" fill="white"/>
<path fill-rule="evenodd" clip-rule="evenodd" d="M501.662 846.908C503.138 848.462 504.638 850.002 506.163 851.527C601.532 946.896 756.157 946.896 851.526 851.527C946.895 756.157 946.895 601.533 851.526 506.163C850.002 504.639 848.462 503.139 846.908 501.663L846.967 501.603L513.831 168.467L513.776 168.523C418.104 77.5434 266.781 78.9991 172.89 172.89C78.9993 266.781 77.5437 418.104 168.523 513.775L168.468 513.831L172.646 518.009C172.728 518.09 172.809 518.172 172.89 518.253C172.972 518.334 173.053 518.416 173.134 518.497L501.604 846.966L501.662 846.908Z" fill="white"/>
<path fill-rule="evenodd" clip-rule="evenodd" d="M922.396 683.485H922.455V678.039L922.455 350.72L922.455 344.466H922.377C919.059 212.483 811.028 106.511 678.247 106.511C545.465 106.511 437.434 212.483 434.116 344.466H434.038V350.613C434.038 350.649 434.038 350.684 434.038 350.72C434.038 350.756 434.038 350.791 434.038 350.827L434.038 678.039V683.485H434.097C436.993 815.843 545.194 922.247 678.247 922.247C811.299 922.247 919.5 815.843 922.396 683.485Z" fill="white"/>
</g>
<mask id="path-4-inside-1_31_26" fill="white">
<path fill-rule="evenodd" clip-rule="evenodd" d="M589.123 683.485H589.182V678.039V350.72V344.466H589.104C585.786 212.483 477.755 106.511 344.974 106.511C212.192 106.511 104.161 212.483 100.843 344.466H100.765V350.72L100.765 678.039V683.485H100.824C103.721 815.843 211.921 922.247 344.974 922.247C478.026 922.247 586.227 815.843 589.123 683.485Z"/>
</mask>
<path fill-rule="evenodd" clip-rule="evenodd" d="M589.123 683.485H589.182V678.039V350.72V344.466H589.104C585.786 212.483 477.755 106.511 344.974 106.511C212.192 106.511 104.161 212.483 100.843 344.466H100.765V350.72L100.765 678.039V683.485H100.824C103.721 815.843 211.921 922.247 344.974 922.247C478.026 922.247 586.227 815.843 589.123 683.485Z" fill="#030081"/>
<path d="M589.182 683.485V697.85H603.547V683.485H589.182ZM589.123 683.485V669.12H575.068L574.761 683.171L589.123 683.485ZM589.182 344.466H603.547V330.101H589.182V344.466ZM589.104 344.466L574.743 344.827L575.095 358.831H589.104V344.466ZM100.843 344.466V358.831H114.852L115.204 344.827L100.843 344.466ZM100.765 344.466V330.101H86.3997V344.466H100.765ZM100.765 683.485H86.3997V697.85H100.765V683.485ZM100.824 683.485L115.186 683.171L114.879 669.12H100.824V683.485ZM589.182 669.12H589.123V697.85H589.182V669.12ZM574.817 678.039V683.485H603.547V678.039H574.817ZM574.817 350.72V678.039H603.547V350.72H574.817ZM574.817 344.466V350.72H603.547V344.466H574.817ZM589.104 358.831H589.182V330.101H589.104V358.831ZM603.464 344.105C599.951 204.352 485.568 92.1462 344.974 92.1462V120.877C469.943 120.877 571.621 220.615 574.743 344.827L603.464 344.105ZM344.974 92.1462C204.379 92.1462 89.9958 204.352 86.4827 344.105L115.204 344.827C118.327 220.615 220.005 120.877 344.974 120.877V92.1462ZM100.765 358.831H100.843V330.101H100.765V358.831ZM115.13 350.72V344.466H86.3997V350.72H115.13ZM115.13 678.039L115.13 350.72H86.3997L86.3997 678.039H115.13ZM115.13 683.485V678.039H86.3997V683.485H115.13ZM100.824 669.12H100.765V697.85H100.824V669.12ZM86.4626 683.799C89.5292 823.949 204.093 936.613 344.974 936.613V907.882C219.749 907.882 117.912 807.736 115.186 683.171L86.4626 683.799ZM344.974 936.613C485.855 936.613 600.418 823.949 603.484 683.799L574.761 683.171C572.035 807.736 470.198 907.882 344.974 907.882V936.613Z" fill="black" mask="url(#path-4-inside-1_31_26)"/>
<mask id="path-6-inside-2_31_26" fill="white">
<path fill-rule="evenodd" clip-rule="evenodd" d="M501.662 846.908C503.138 848.462 504.638 850.002 506.163 851.527C601.532 946.896 756.157 946.896 851.526 851.527C946.895 756.157 946.895 601.533 851.526 506.163C850.002 504.639 848.462 503.139 846.908 501.663L846.967 501.603L513.831 168.467L513.776 168.523C418.104 77.5434 266.781 78.9991 172.89 172.89C78.9993 266.781 77.5437 418.104 168.523 513.775L168.468 513.831L172.646 518.009C172.728 518.09 172.809 518.172 172.89 518.253C172.972 518.334 173.053 518.416 173.134 518.497L501.604 846.966L501.662 846.908Z"/>
</mask>
<path fill-rule="evenodd" clip-rule="evenodd" d="M501.662 846.908C503.138 848.462 504.638 850.002 506.163 851.527C601.532 946.896 756.157 946.896 851.526 851.527C946.895 756.157 946.895 601.533 851.526 506.163C850.002 504.639 848.462 503.139 846.908 501.663L846.967 501.603L513.831 168.467L513.776 168.523C418.104 77.5434 266.781 78.9991 172.89 172.89C78.9993 266.781 77.5437 418.104 168.523 513.775L168.468 513.831L172.646 518.009C172.728 518.09 172.809 518.172 172.89 518.253C172.972 518.334 173.053 518.416 173.134 518.497L501.604 846.966L501.662 846.908Z" fill="#3D1FF3" fill-opacity="0.5"/>
<path d="M501.662 846.908L512.08 837.017L501.929 826.326L491.505 836.75L501.662 846.908ZM846.908 501.663L836.75 491.505L826.325 501.93L837.016 512.08L846.908 501.663ZM846.967 501.603L857.125 511.761L867.283 501.603L857.125 491.446L846.967 501.603ZM513.831 168.467L523.989 158.31L513.831 148.152L503.673 158.31L513.831 168.467ZM513.776 168.523L503.876 178.933L514.028 188.586L523.933 178.681L513.776 168.523ZM168.523 513.775L178.681 523.933L188.587 514.027L178.933 503.876L168.523 513.775ZM168.468 513.831L158.31 503.673L148.153 513.831L158.31 523.988L168.468 513.831ZM172.646 518.009L182.818 507.865L182.811 507.858L182.804 507.851L172.646 518.009ZM173.134 518.497L183.292 508.339L183.285 508.332L183.278 508.325L173.134 518.497ZM501.604 846.966L491.446 857.124L501.604 867.282L511.762 857.124L501.604 846.966ZM491.245 856.799C492.806 858.443 494.393 860.072 496.005 861.684L516.321 841.369C514.884 839.932 513.47 838.481 512.08 837.017L491.245 856.799ZM496.005 861.684C596.984 962.664 760.704 962.664 861.684 861.684L841.368 841.369C751.609 931.128 606.08 931.128 516.321 841.369L496.005 861.684ZM861.684 861.684C962.663 760.705 962.663 596.985 861.684 496.006L841.368 516.321C931.128 606.081 931.128 751.609 841.368 841.369L861.684 861.684ZM861.684 496.006C860.072 494.393 858.443 492.807 856.799 491.245L837.016 512.08C838.481 513.471 839.932 514.884 841.368 516.321L861.684 496.006ZM836.809 491.446L836.75 491.505L857.065 511.821L857.125 511.761L836.809 491.446ZM503.673 178.625L836.809 511.761L857.125 491.446L523.989 158.31L503.673 178.625ZM523.933 178.681L523.989 178.625L503.673 158.31L503.618 158.365L523.933 178.681ZM523.675 158.113C422.37 61.777 262.148 63.3169 162.732 162.732L183.048 183.048C271.414 94.6813 413.838 93.31 503.876 178.933L523.675 158.113ZM162.732 162.732C63.3171 262.148 61.7772 422.37 158.114 523.675L178.933 503.876C93.3102 413.837 94.6815 271.414 183.048 183.048L162.732 162.732ZM178.626 523.988L178.681 523.933L158.366 503.618L158.31 503.673L178.626 523.988ZM182.804 507.851L178.626 503.673L158.31 523.988L162.489 528.167L182.804 507.851ZM162.475 528.153C162.561 528.239 162.646 528.325 162.732 528.411L183.048 508.095C182.971 508.019 182.895 507.942 182.818 507.865L162.475 528.153ZM162.732 528.411C162.818 528.497 162.904 528.583 162.991 528.669L183.278 508.325C183.201 508.249 183.125 508.172 183.048 508.095L162.732 528.411ZM511.762 836.809L183.292 508.339L162.977 528.655L491.446 857.124L511.762 836.809ZM491.505 836.75L491.446 836.809L511.762 857.124L511.82 857.066L491.505 836.75Z" fill="black" mask="url(#path-6-inside-2_31_26)"/>
<mask id="path-8-inside-3_31_26" fill="white">
<path fill-rule="evenodd" clip-rule="evenodd" d="M922.396 683.485H922.455V678.039L922.455 350.72L922.455 344.466H922.377C919.059 212.483 811.028 106.511 678.247 106.511C545.465 106.511 437.434 212.483 434.116 344.466H434.038V350.613C434.038 350.649 434.038 350.684 434.038 350.72C434.038 350.756 434.038 350.791 434.038 350.827L434.038 678.039V683.485H434.097C436.993 815.843 545.194 922.247 678.247 922.247C811.299 922.247 919.5 815.843 922.396 683.485Z"/>
</mask>
<path fill-rule="evenodd" clip-rule="evenodd" d="M922.396 683.485H922.455V678.039L922.455 350.72L922.455 344.466H922.377C919.059 212.483 811.028 106.511 678.247 106.511C545.465 106.511 437.434 212.483 434.116 344.466H434.038V350.613C434.038 350.649 434.038 350.684 434.038 350.72C434.038 350.756 434.038 350.791 434.038 350.827L434.038 678.039V683.485H434.097C436.993 815.843 545.194 922.247 678.247 922.247C811.299 922.247 919.5 815.843 922.396 683.485Z" fill="#1C33FF" fill-opacity="0.5"/>
<path d="M922.455 683.485V697.85H936.82V683.485H922.455ZM922.396 683.485V669.12H908.341L908.034 683.171L922.396 683.485ZM922.455 678.039H936.82H922.455ZM922.455 350.72L908.09 350.72V350.72H922.455ZM922.455 344.466L936.82 344.466L936.82 330.101H922.455V344.466ZM922.377 344.466L908.016 344.827L908.368 358.831H922.377V344.466ZM434.116 344.466V358.831H448.125L448.477 344.827L434.116 344.466ZM434.038 344.466V330.101H419.673V344.466H434.038ZM434.038 350.613L448.403 350.619V350.613H434.038ZM434.038 350.827H448.403L448.403 350.821L434.038 350.827ZM434.038 683.485H419.673V697.85H434.038V683.485ZM434.097 683.485L448.459 683.171L448.152 669.12H434.097V683.485ZM922.455 669.12H922.396V697.85H922.455V669.12ZM908.09 678.039V683.485H936.82V678.039H908.09ZM908.09 350.72L908.09 678.039H936.82L936.82 350.72H908.09ZM908.09 344.466L908.09 350.72L936.82 350.72L936.82 344.466L908.09 344.466ZM922.377 358.831H922.455V330.101H922.377V358.831ZM936.737 344.105C933.224 204.352 818.841 92.1462 678.247 92.1462V120.877C803.215 120.877 904.894 220.615 908.016 344.827L936.737 344.105ZM678.247 92.1462C537.652 92.1462 423.269 204.352 419.756 344.105L448.477 344.827C451.599 220.615 553.278 120.877 678.247 120.877V92.1462ZM434.038 358.831H434.116V330.101H434.038V358.831ZM448.403 350.613V344.466H419.673V350.613H448.403ZM419.673 350.607C419.673 350.645 419.673 350.682 419.673 350.72H448.403C448.403 350.686 448.403 350.653 448.403 350.619L419.673 350.607ZM419.673 350.72C419.673 350.758 419.673 350.795 419.673 350.833L448.403 350.821C448.403 350.787 448.403 350.754 448.403 350.72H419.673ZM448.403 678.039L448.403 350.827H419.673L419.673 678.039H448.403ZM448.403 683.485V678.039H419.673V683.485H448.403ZM434.097 669.12H434.038V697.85H434.097V669.12ZM419.736 683.799C422.802 823.949 537.365 936.613 678.247 936.613V907.882C553.022 907.882 451.185 807.736 448.459 683.171L419.736 683.799ZM678.247 936.613C819.128 936.613 933.691 823.949 936.757 683.799L908.034 683.171C905.308 807.736 803.471 907.882 678.247 907.882V936.613Z" fill="black" mask="url(#path-8-inside-3_31_26)"/>
<defs>
<filter id="filter0_b_31_26" x="60.7649" y="61.3629" width="902.288" height="901.691" filterUnits="userSpaceOnUse" color-interpolation-filters="sRGB">
<feFlood flood-opacity="0" result="BackgroundImageFix"/>
<feGaussianBlur in="BackgroundImageFix" stdDeviation="20"/>
<feComposite in2="SourceAlpha" operator="in" result="effect1_backgroundBlur_31_26"/>
<feBlend mode="normal" in="SourceGraphic" in2="effect1_backgroundBlur_31_26" result="shape"/>
</filter>
</defs>
</svg>
