<svg width="1024" height="1024" viewBox="0 0 1024 1024" fill="none" xmlns="http://www.w3.org/2000/svg">
<g filter="url(#filter0_b_38_2)">
<path fill-rule="evenodd" clip-rule="evenodd" d="M588.914 683.277H588.974V677.83V350.512V344.258H588.895C585.578 212.275 477.547 106.303 344.765 106.303C211.984 106.303 103.953 212.275 100.635 344.258H100.557V350.512L100.557 677.83V683.277H100.616C103.512 815.634 211.713 922.039 344.765 922.039C477.818 922.039 586.018 815.634 588.914 683.277Z" fill="white"/>
<path fill-rule="evenodd" clip-rule="evenodd" d="M501.454 846.7C502.93 848.254 504.43 849.794 505.955 851.318C601.324 946.688 755.949 946.688 851.318 851.318C946.687 755.949 946.687 601.324 851.318 505.955C849.793 504.431 848.254 502.93 846.699 501.455L846.759 501.395L513.623 168.259L513.567 168.315C417.896 77.3352 266.573 78.7908 172.682 172.682C78.7912 266.573 77.3356 417.895 168.315 513.567L168.26 513.622L172.438 517.801C172.52 517.882 172.601 517.964 172.682 518.045C172.763 518.126 172.845 518.207 172.926 518.289L501.396 846.758L501.454 846.7Z" fill="white"/>
<path fill-rule="evenodd" clip-rule="evenodd" d="M922.187 683.277H922.247V677.83L922.247 350.512L922.247 344.258H922.168C918.851 212.275 810.82 106.303 678.038 106.303C545.257 106.303 437.226 212.275 433.908 344.258H433.83V350.405C433.83 350.441 433.83 350.476 433.83 350.512C433.83 350.547 433.83 350.583 433.83 350.619L433.83 677.83V683.277H433.889C436.785 815.634 544.986 922.039 678.038 922.039C811.091 922.039 919.291 815.634 922.187 683.277Z" fill="white"/>
</g>
<mask id="path-4-inside-1_38_2" fill="white">
<path fill-rule="evenodd" clip-rule="evenodd" d="M588.914 683.277H588.974V677.83V350.512V344.258H588.895C585.578 212.275 477.547 106.303 344.765 106.303C211.983 106.303 103.953 212.275 100.635 344.258H100.557V350.512L100.557 677.83V683.277H100.616C103.512 815.634 211.713 922.039 344.765 922.039C477.818 922.039 586.018 815.634 588.914 683.277Z"/>
</mask>
<path fill-rule="evenodd" clip-rule="evenodd" d="M588.914 683.277H588.974V677.83V350.512V344.258H588.895C585.578 212.275 477.547 106.303 344.765 106.303C211.983 106.303 103.953 212.275 100.635 344.258H100.557V350.512L100.557 677.83V683.277H100.616C103.512 815.634 211.713 922.039 344.765 922.039C477.818 922.039 586.018 815.634 588.914 683.277Z" fill="black"/>
<path d="M588.974 683.277V697.642H603.339V683.277H588.974ZM588.914 683.277V668.911H574.86L574.553 682.962L588.914 683.277ZM588.974 344.258H603.339V329.892H588.974V344.258ZM588.895 344.258L574.535 344.619L574.887 358.623H588.895V344.258ZM100.635 344.258V358.623H114.644L114.996 344.619L100.635 344.258ZM100.557 344.258V329.892H86.1914V344.258H100.557ZM100.557 683.277H86.1914V697.642H100.557V683.277ZM100.616 683.277L114.978 682.962L114.67 668.911H100.616V683.277ZM588.974 668.911H588.914V697.642H588.974V668.911ZM574.609 677.83V683.277H603.339V677.83H574.609ZM574.609 350.512V677.83H603.339V350.512H574.609ZM574.609 344.258V350.512H603.339V344.258H574.609ZM588.895 358.623H588.974V329.892H588.895V358.623ZM603.256 343.897C599.743 204.143 485.36 91.9379 344.765 91.9379V120.668C469.734 120.668 571.412 220.407 574.535 344.619L603.256 343.897ZM344.765 91.9379C204.171 91.9379 89.7875 204.143 86.2744 343.897L114.996 344.619C118.118 220.407 219.796 120.668 344.765 120.668V91.9379ZM100.557 358.623H100.635V329.892H100.557V358.623ZM114.922 350.512V344.258H86.1914V350.512H114.922ZM114.922 677.83L114.922 350.512H86.1914L86.1914 677.83H114.922ZM114.922 683.277V677.83H86.1914V683.277H114.922ZM100.616 668.911H100.557V697.642H100.616V668.911ZM86.2543 683.591C89.3209 823.741 203.884 936.404 344.765 936.404V907.674C219.541 907.674 117.703 807.528 114.978 682.962L86.2543 683.591ZM344.765 936.404C485.646 936.404 600.21 823.741 603.276 683.591L574.553 682.962C571.827 807.528 469.989 907.674 344.765 907.674V936.404Z" fill="white" mask="url(#path-4-inside-1_38_2)"/>
<mask id="path-6-inside-2_38_2" fill="white">
<path fill-rule="evenodd" clip-rule="evenodd" d="M501.454 846.7C502.93 848.254 504.43 849.794 505.955 851.318C601.324 946.688 755.948 946.688 851.318 851.318C946.687 755.949 946.687 601.324 851.318 505.955C849.793 504.431 848.254 502.93 846.699 501.455L846.759 501.395L513.623 168.259L513.567 168.315C417.896 77.3352 266.573 78.7908 172.682 172.682C78.7911 266.573 77.3355 417.895 168.315 513.567L168.26 513.622L172.438 517.801C172.519 517.882 172.601 517.964 172.682 518.045C172.763 518.126 172.845 518.207 172.926 518.289L501.396 846.758L501.454 846.7Z"/>
</mask>
<path fill-rule="evenodd" clip-rule="evenodd" d="M501.454 846.7C502.93 848.254 504.43 849.794 505.955 851.318C601.324 946.688 755.948 946.688 851.318 851.318C946.687 755.949 946.687 601.324 851.318 505.955C849.793 504.431 848.254 502.93 846.699 501.455L846.759 501.395L513.623 168.259L513.567 168.315C417.896 77.3352 266.573 78.7908 172.682 172.682C78.7911 266.573 77.3355 417.895 168.315 513.567L168.26 513.622L172.438 517.801C172.519 517.882 172.601 517.964 172.682 518.045C172.763 518.126 172.845 518.207 172.926 518.289L501.396 846.758L501.454 846.7Z" fill="#9E9E9E" fill-opacity="0.5"/>
<path d="M501.454 846.7L511.872 836.809L501.721 826.118L491.296 836.542L501.454 846.7ZM846.699 501.455L836.542 491.297L826.117 501.721L836.808 511.872L846.699 501.455ZM846.759 501.395L856.917 511.553L867.074 501.395L856.917 491.237L846.759 501.395ZM513.623 168.259L523.781 158.101L513.623 147.944L503.465 158.101L513.623 168.259ZM513.567 168.315L503.668 178.725L513.819 188.378L523.725 178.473L513.567 168.315ZM168.315 513.567L178.473 523.725L188.379 513.819L178.725 503.668L168.315 513.567ZM168.26 513.622L158.102 503.465L147.944 513.622L158.102 523.78L168.26 513.622ZM172.438 517.801L182.61 507.657L182.603 507.65L182.596 507.643L172.438 517.801ZM172.926 518.289L183.084 508.131L183.077 508.124L183.07 508.117L172.926 518.289ZM501.396 846.758L491.238 856.916L501.396 867.074L511.553 856.916L501.396 846.758ZM491.037 856.591C492.598 858.235 494.185 859.864 495.797 861.476L516.112 841.161C514.676 839.724 513.262 838.273 511.872 836.809L491.037 856.591ZM495.797 861.476C596.776 962.455 760.496 962.455 861.476 861.476L841.16 841.161C751.401 930.92 605.872 930.92 516.112 841.161L495.797 861.476ZM861.476 861.476C962.455 760.497 962.455 596.777 861.476 495.797L841.16 516.113C930.92 605.872 930.92 751.401 841.16 841.161L861.476 861.476ZM861.476 495.797C859.863 494.185 858.235 492.598 856.59 491.037L836.808 511.872C838.273 513.262 839.723 514.676 841.16 516.113L861.476 495.797ZM836.601 491.237L836.542 491.297L856.857 511.612L856.917 511.553L836.601 491.237ZM503.465 178.417L836.601 511.553L856.917 491.237L523.781 158.101L503.465 178.417ZM523.725 178.473L523.781 178.417L503.465 158.101L503.41 158.157L523.725 178.473ZM523.467 157.905C422.162 61.5687 261.94 63.1086 162.524 162.524L182.84 182.839C271.206 94.473 413.629 93.1017 503.668 178.725L523.467 157.905ZM162.524 162.524C63.1089 261.939 61.569 422.162 157.905 523.466L178.725 503.668C93.102 413.629 94.4734 271.206 182.84 182.839L162.524 162.524ZM178.418 523.78L178.473 523.725L158.157 503.409L158.102 503.465L178.418 523.78ZM182.596 507.643L178.418 503.465L158.102 523.78L162.281 527.959L182.596 507.643ZM162.267 527.945C162.352 528.031 162.438 528.117 162.524 528.203L182.84 507.887C182.763 507.811 182.687 507.734 182.61 507.657L162.267 527.945ZM162.524 528.203C162.61 528.289 162.696 528.375 162.782 528.46L183.07 508.117C182.993 508.04 182.916 507.964 182.84 507.887L162.524 528.203ZM511.553 836.6L183.084 508.131L162.768 528.446L491.238 856.916L511.553 836.6ZM491.296 836.542L491.238 836.6L511.553 856.916L511.612 856.857L491.296 836.542Z" fill="white" mask="url(#path-6-inside-2_38_2)"/>
<mask id="path-8-inside-3_38_2" fill="white">
<path fill-rule="evenodd" clip-rule="evenodd" d="M922.187 683.277H922.247V677.83L922.247 350.512L922.247 344.258H922.168C918.851 212.275 810.82 106.303 678.038 106.303C545.256 106.303 437.226 212.275 433.908 344.258H433.83V350.405C433.83 350.441 433.83 350.476 433.83 350.512C433.83 350.547 433.83 350.583 433.83 350.619L433.83 677.83V683.277H433.889C436.785 815.634 544.986 922.039 678.038 922.039C811.091 922.039 919.291 815.634 922.187 683.277Z"/>
</mask>
<path fill-rule="evenodd" clip-rule="evenodd" d="M922.187 683.277H922.247V677.83L922.247 350.512L922.247 344.258H922.168C918.851 212.275 810.82 106.303 678.038 106.303C545.256 106.303 437.226 212.275 433.908 344.258H433.83V350.405C433.83 350.441 433.83 350.476 433.83 350.512C433.83 350.547 433.83 350.583 433.83 350.619L433.83 677.83V683.277H433.889C436.785 815.634 544.986 922.039 678.038 922.039C811.091 922.039 919.291 815.634 922.187 683.277Z" fill="#9E9E9E" fill-opacity="0.5"/>
<path d="M922.247 683.277V697.642H936.612V683.277H922.247ZM922.187 683.277V668.911H908.133L907.826 682.962L922.187 683.277ZM922.247 677.83H936.612H922.247ZM922.247 350.512L907.882 350.512V350.512H922.247ZM922.247 344.258L936.612 344.258L936.612 329.892H922.247V344.258ZM922.168 344.258L907.808 344.619L908.16 358.623H922.168V344.258ZM433.908 344.258V358.623H447.917L448.269 344.619L433.908 344.258ZM433.83 344.258V329.892H419.464V344.258H433.83ZM433.83 350.405L448.195 350.411V350.405H433.83ZM433.83 350.619H448.195L448.195 350.613L433.83 350.619ZM433.83 683.277H419.464V697.642H433.83V683.277ZM433.889 683.277L448.251 682.962L447.943 668.911H433.889V683.277ZM922.247 668.911H922.187V697.642H922.247V668.911ZM907.882 677.83V683.277H936.612V677.83H907.882ZM907.882 350.512L907.882 677.83H936.612L936.612 350.512H907.882ZM907.882 344.258L907.882 350.512L936.612 350.512L936.612 344.258L907.882 344.258ZM922.168 358.623H922.247V329.892H922.168V358.623ZM936.529 343.897C933.016 204.143 818.633 91.9379 678.038 91.9379V120.668C803.007 120.668 904.685 220.407 907.808 344.619L936.529 343.897ZM678.038 91.9379C537.444 91.9379 423.06 204.143 419.547 343.897L448.269 344.619C451.391 220.407 553.069 120.668 678.038 120.668V91.9379ZM433.83 358.623H433.908V329.892H433.83V358.623ZM448.195 350.405V344.258H419.464V350.405H448.195ZM419.464 350.399C419.464 350.436 419.464 350.474 419.464 350.512H448.195C448.195 350.478 448.195 350.445 448.195 350.411L419.464 350.399ZM419.464 350.512C419.464 350.549 419.464 350.587 419.464 350.625L448.195 350.613C448.195 350.579 448.195 350.545 448.195 350.512H419.464ZM448.195 677.83L448.195 350.619H419.464L419.464 677.83H448.195ZM448.195 683.277V677.83H419.464V683.277H448.195ZM433.889 668.911H433.83V697.642H433.889V668.911ZM419.527 683.591C422.594 823.741 537.157 936.404 678.038 936.404V907.674C552.814 907.674 450.976 807.528 448.251 682.962L419.527 683.591ZM678.038 936.404C818.919 936.404 933.483 823.741 936.549 683.591L907.826 682.962C905.1 807.528 803.262 907.674 678.038 907.674V936.404Z" fill="white" mask="url(#path-8-inside-3_38_2)"/>
<defs>
<filter id="filter0_b_38_2" x="60.5566" y="61.1546" width="902.288" height="901.691" filterUnits="userSpaceOnUse" color-interpolation-filters="sRGB">
<feFlood flood-opacity="0" result="BackgroundImageFix"/>
<feGaussianBlur in="BackgroundImageFix" stdDeviation="20"/>
<feComposite in2="SourceAlpha" operator="in" result="effect1_backgroundBlur_38_2"/>
<feBlend mode="normal" in="SourceGraphic" in2="effect1_backgroundBlur_38_2" result="shape"/>
</filter>
</defs>
</svg>
